<mxfile host="app.diagrams.net" modified="2024-06-19T17:16:35.574Z" agent="Mozilla/5.0 (Windows NT 10.0; Win64; x64) AppleWebKit/537.36 (KHTML, like Gecko) Chrome/126.0.0.0 Safari/537.36 Edg/126.0.0.0" etag="5MLVhWi0pTV5Kv2565UB" version="24.5.5" type="github">
  <diagram id="C5RBs43oDa-KdzZeNtuy" name="Page-1">
    <mxGraphModel dx="1012" dy="421" grid="1" gridSize="10" guides="1" tooltips="1" connect="1" arrows="1" fold="1" page="1" pageScale="1" pageWidth="827" pageHeight="1169" math="0" shadow="0">
      <root>
        <mxCell id="WIyWlLk6GJQsqaUBKTNV-0" />
        <mxCell id="WIyWlLk6GJQsqaUBKTNV-1" parent="WIyWlLk6GJQsqaUBKTNV-0" />
        <mxCell id="Ms23km_vFY2GQT_gOKAn-99" value="开始" style="ellipse;whiteSpace=wrap;html=1;" vertex="1" parent="WIyWlLk6GJQsqaUBKTNV-1">
          <mxGeometry x="400" y="585" width="140" height="70" as="geometry" />
        </mxCell>
        <mxCell id="Ms23km_vFY2GQT_gOKAn-100" value="" style="endArrow=open;endFill=1;endSize=12;html=1;rounded=0;" edge="1" parent="WIyWlLk6GJQsqaUBKTNV-1">
          <mxGeometry width="160" relative="1" as="geometry">
            <mxPoint x="470" y="655" as="sourcePoint" />
            <mxPoint x="470" y="715" as="targetPoint" />
          </mxGeometry>
        </mxCell>
        <mxCell id="Ms23km_vFY2GQT_gOKAn-102" value="登录" style="html=1;whiteSpace=wrap;aspect=fixed;shape=isoRectangle;" vertex="1" parent="WIyWlLk6GJQsqaUBKTNV-1">
          <mxGeometry x="395" y="716" width="150" height="90" as="geometry" />
        </mxCell>
        <mxCell id="Ms23km_vFY2GQT_gOKAn-103" value="" style="endArrow=open;endFill=1;endSize=12;html=1;rounded=0;" edge="1" parent="WIyWlLk6GJQsqaUBKTNV-1">
          <mxGeometry width="160" relative="1" as="geometry">
            <mxPoint x="469.5" y="804" as="sourcePoint" />
            <mxPoint x="469.5" y="864" as="targetPoint" />
          </mxGeometry>
        </mxCell>
        <mxCell id="Ms23km_vFY2GQT_gOKAn-105" value="登录判断" style="html=1;whiteSpace=wrap;" vertex="1" parent="WIyWlLk6GJQsqaUBKTNV-1">
          <mxGeometry x="417" y="868" width="110" height="50" as="geometry" />
        </mxCell>
        <mxCell id="Ms23km_vFY2GQT_gOKAn-106" value="" style="endArrow=open;endFill=1;endSize=12;html=1;rounded=0;edgeStyle=orthogonalEdgeStyle;exitX=1.003;exitY=0.605;exitDx=0;exitDy=0;exitPerimeter=0;" edge="1" parent="WIyWlLk6GJQsqaUBKTNV-1" source="Ms23km_vFY2GQT_gOKAn-105">
          <mxGeometry width="160" relative="1" as="geometry">
            <mxPoint x="548" y="899" as="sourcePoint" />
            <mxPoint x="544" y="760" as="targetPoint" />
            <Array as="points">
              <mxPoint x="629" y="898" />
              <mxPoint x="629" y="759" />
              <mxPoint x="579" y="759" />
              <mxPoint x="579" y="760" />
            </Array>
          </mxGeometry>
        </mxCell>
        <mxCell id="Ms23km_vFY2GQT_gOKAn-107" value="登录失败" style="edgeLabel;html=1;align=center;verticalAlign=middle;resizable=0;points=[];" vertex="1" connectable="0" parent="Ms23km_vFY2GQT_gOKAn-106">
          <mxGeometry x="0.1402" y="1" relative="1" as="geometry">
            <mxPoint as="offset" />
          </mxGeometry>
        </mxCell>
        <mxCell id="Ms23km_vFY2GQT_gOKAn-108" value="" style="endArrow=open;endFill=1;endSize=12;html=1;rounded=0;" edge="1" parent="WIyWlLk6GJQsqaUBKTNV-1">
          <mxGeometry width="160" relative="1" as="geometry">
            <mxPoint x="470.5" y="918" as="sourcePoint" />
            <mxPoint x="470.5" y="978" as="targetPoint" />
          </mxGeometry>
        </mxCell>
        <mxCell id="Ms23km_vFY2GQT_gOKAn-110" value="管理员账号" style="edgeLabel;html=1;align=center;verticalAlign=middle;resizable=0;points=[];" vertex="1" connectable="0" parent="Ms23km_vFY2GQT_gOKAn-108">
          <mxGeometry x="-0.348" y="-1" relative="1" as="geometry">
            <mxPoint as="offset" />
          </mxGeometry>
        </mxCell>
        <mxCell id="Ms23km_vFY2GQT_gOKAn-109" value="" style="endArrow=open;endFill=1;endSize=12;html=1;rounded=0;" edge="1" parent="WIyWlLk6GJQsqaUBKTNV-1">
          <mxGeometry width="160" relative="1" as="geometry">
            <mxPoint x="416.5" y="893" as="sourcePoint" />
            <mxPoint x="330" y="893" as="targetPoint" />
          </mxGeometry>
        </mxCell>
        <mxCell id="Ms23km_vFY2GQT_gOKAn-111" value="普通用户" style="edgeLabel;html=1;align=center;verticalAlign=middle;resizable=0;points=[];" vertex="1" connectable="0" parent="Ms23km_vFY2GQT_gOKAn-109">
          <mxGeometry x="0.2454" y="1" relative="1" as="geometry">
            <mxPoint as="offset" />
          </mxGeometry>
        </mxCell>
        <mxCell id="Ms23km_vFY2GQT_gOKAn-112" value="管理员界面" style="html=1;whiteSpace=wrap;" vertex="1" parent="WIyWlLk6GJQsqaUBKTNV-1">
          <mxGeometry x="414" y="980" width="110" height="50" as="geometry" />
        </mxCell>
        <mxCell id="Ms23km_vFY2GQT_gOKAn-113" value="普通用户界面" style="html=1;whiteSpace=wrap;" vertex="1" parent="WIyWlLk6GJQsqaUBKTNV-1">
          <mxGeometry x="220" y="868" width="110" height="50" as="geometry" />
        </mxCell>
      </root>
    </mxGraphModel>
  </diagram>
</mxfile>
